<?xml version="1.0" encoding="utf-8"?>
<!-- Generator: Adobe Illustrator 26.5.0, SVG Export Plug-In . SVG Version: 6.00 Build 0)  -->
<svg version="1.1" id="Слой_1" xmlns="http://www.w3.org/2000/svg" xmlns:xlink="http://www.w3.org/1999/xlink" x="0px" y="0px"
	 viewBox="0 0 115 30" style="enable-background:new 0 0 115 30;" xml:space="preserve">
<path d="M0.7,23V0.6h4.3l9.5,15.8h-2.3l9.4-15.8h4.3L25.9,23H21l0-14.9h0.9l-7.5,12.6h-2.3L4.4,8.1h1.1V23H0.7z M33,29.5
	c-0.9,0-1.8-0.1-2.7-0.4c-0.9-0.3-1.6-0.7-2.1-1.2l1.8-3.6c0.4,0.3,0.8,0.6,1.3,0.8c0.5,0.2,1,0.3,1.5,0.3c0.7,0,1.3-0.2,1.7-0.5
	c0.4-0.3,0.8-0.9,1.2-1.6l0.9-2.1l0.4-0.5l6.2-14.8H48l-7.8,18.3c-0.6,1.4-1.2,2.5-1.9,3.3c-0.7,0.8-1.5,1.3-2.4,1.7
	C35,29.3,34.1,29.5,33,29.5z M36,23.7L28.3,5.8h5.2l6,14.4L36,23.7z M46.5,23l10-22.4h5.1l10,22.4h-5.4L58,3.2h2L51.8,23H46.5z
	 M51.5,18.2l1.4-3.9h11.5l1.4,3.9H51.5z M83.8,23.3c-1.5,0-2.7-0.3-3.8-1c-1.1-0.6-1.9-1.6-2.6-2.9c-0.6-1.3-0.9-3-0.9-5
	c0-2,0.3-3.7,0.9-5c0.6-1.3,1.4-2.3,2.5-2.9s2.4-1,3.9-1c1.6,0,3.1,0.4,4.4,1.1c1.3,0.7,2.3,1.7,3.1,3.1c0.8,1.3,1.2,2.9,1.2,4.7
	c0,1.8-0.4,3.4-1.2,4.7c-0.7,1.3-1.8,2.3-3.1,3.1C86.8,22.9,85.4,23.3,83.8,23.3z M73.6,29.2V5.8h4.8v3.5l-0.1,5.1l0.3,5.1v9.7H73.6
	z M82.9,19.2c0.8,0,1.6-0.2,2.2-0.6c0.7-0.4,1.2-0.9,1.6-1.6c0.4-0.7,0.6-1.6,0.6-2.6c0-1-0.2-1.9-0.6-2.6c-0.4-0.7-0.9-1.2-1.6-1.6
	c-0.6-0.4-1.4-0.6-2.2-0.6s-1.6,0.2-2.2,0.6c-0.7,0.4-1.2,0.9-1.6,1.6c-0.4,0.7-0.6,1.6-0.6,2.6c0,1,0.2,1.8,0.6,2.6
	c0.4,0.7,0.9,1.2,1.6,1.6C81.3,19,82.1,19.2,82.9,19.2z M105.9,23.3c-1.5,0-2.7-0.3-3.8-1c-1.1-0.6-1.9-1.6-2.6-2.9
	c-0.6-1.3-0.9-3-0.9-5c0-2,0.3-3.7,0.9-5c0.6-1.3,1.4-2.3,2.5-2.9c1.1-0.6,2.4-1,3.9-1c1.6,0,3.1,0.4,4.4,1.1
	c1.3,0.7,2.3,1.7,3.1,3.1c0.8,1.3,1.2,2.9,1.2,4.7c0,1.8-0.4,3.4-1.2,4.7c-0.7,1.3-1.8,2.3-3.1,3.1
	C108.9,22.9,107.5,23.3,105.9,23.3z M95.7,29.2V5.8h4.8v3.5l-0.1,5.1l0.3,5.1v9.7H95.7z M105,19.2c0.8,0,1.6-0.2,2.2-0.6
	c0.7-0.4,1.2-0.9,1.6-1.6c0.4-0.7,0.6-1.6,0.6-2.6c0-1-0.2-1.9-0.6-2.6c-0.4-0.7-0.9-1.2-1.6-1.6c-0.6-0.4-1.4-0.6-2.2-0.6
	s-1.6,0.2-2.2,0.6s-1.2,0.9-1.6,1.6c-0.4,0.7-0.6,1.6-0.6,2.6c0,1,0.2,1.8,0.6,2.6c0.4,0.7,0.9,1.2,1.6,1.6
	C103.4,19,104.2,19.2,105,19.2z"/>
</svg>
