<?xml version="1.0" encoding="utf-8"?>
<!-- Generator: Adobe Illustrator 26.5.0, SVG Export Plug-In . SVG Version: 6.00 Build 0)  -->
<svg version="1.1" id="Слой_1" xmlns="http://www.w3.org/2000/svg" xmlns:xlink="http://www.w3.org/1999/xlink" x="0px" y="0px"
	 viewBox="0 0 132 90.1" style="enable-background:new 0 0 132 90.1;" xml:space="preserve">
<style type="text/css">
	.st0{fill:#A0A0A0;}
</style>
<g>
	<path class="st0" d="M132,86.1c0-27.4,0-54.7,0-82.1c0-3.5-0.4-3.9-3.9-4C86.6,0,45.1,0,3.7,0C1.2,0,0.4,0.7,0.1,3.2
		c-0.1,1,0,2,0,3C0,32.1,0,58,0,83.8c0,0.8-0.1,1.7,0,2.5C0.3,89.2,1.2,90,4.2,90c20.5,0,41,0,61.5,0c19.7,0,39.3,0,59,0
		c1.7,0,3.3,0.1,5,0c1.4-0.1,2.4-0.9,2.4-2.4C132,87.1,132,86.6,132,86.1z M129,4.5c-0.1,0.8,0,1.6,0,2.5c0,25.4,0,50.8,0,76.1
		c0,4,0,4-4.3,4c-23.3,0-46.6,0-69.9,0c-16,0-32,0-48,0c-2.7,0-2.8,0-2.8-2.5C4,58.2,4,31.8,4,5.5C4,3,4.1,3,6.8,3c20,0,40,0,59.9,0
		c19.1,0,38.3,0,57.4,0c1.2,0,2.3,0,3.5,0C128.9,2.9,129.1,3.5,129,4.5z"/>
	<path class="st0" d="M115.3,72.2c-5.1-5.7-9.3-12-13.9-18.1c-4.6-6.3-9.6-12.4-13.7-19c-1.4-2.3-3.4-4.3-5.3-6.2
		c-1.5-1.6-3.6-1.5-5.1,0.1c-1,1-1.5,2.4-2.5,3.4c-2.2,2.1-3.6,4.8-5.4,7.2c-1.9,2.5-3.8,5-5.6,7.6c-3.6,5-7.6,9.6-10.9,14.8
		c-0.2,0.3-0.8,0.5-1.2,0.5c-1.7,0.1-2.8-0.2-3.9-2c-2.3-3.9-5-7.8-8.4-10.9c-1.6-1.5-3.6-1.4-5.1,0.2c-1.6,1.8-2.9,3.7-4.3,5.6
		c-3.1,4.2-6,8.4-9.1,12.6c-3.1,4.2-6.3,8.3-9.5,12.4c-0.1,0.1,0.2,0.8,0.4,0.8c1.3,0.1,2.7,0,4,0c16.6,0,33.3,0,49.9,0
		c16.8,0,33.6,0,50.4,0c1.3,0,2.7,0.1,4-0.1c0.3,0,0.9-1.2,0.8-1.3C118.6,77.5,117.3,74.5,115.3,72.2z"/>
	<ellipse transform="matrix(0.9871 -0.1602 0.1602 0.9871 -3.2232 3.6894)" class="st0" cx="21.3" cy="21.8" rx="8.7" ry="8.7"/>
</g>
</svg>
